<svg xmlns="http://www.w3.org/2000/svg" enable-background="new 0 0 512 512" viewBox="0 0 512 512"><path fill="#94c1ff" d="M331.719,19.835L331.719,19.835c0-7.401-5.999-13.4-13.4-13.4H163.134c-7.401,0-13.4,5.999-13.4,13.4v0c0,7.401,5.999,13.4,13.4,13.4h155.184C325.719,33.235,331.719,27.236,331.719,19.835z"/><path fill="#d7e9ff" d="M382.92,176.682v271.835c0,17.666-14.321,31.988-31.988,31.988H130.521c-17.666,0-31.988-14.322-31.988-31.988V176.682c0-17.666,14.321-31.988,31.988-31.988h220.411C368.599,144.694,382.92,159.015,382.92,176.682z"/><path fill="#94c1ff" d="M98.533,416.234v32.283c0,17.666,14.321,31.988,31.988,31.988h220.411c17.667,0,31.988-14.322,31.988-31.988v-32.283H98.533z"/><path fill="#94c1ff" d="M341.247 308.675v107.639H140.362V308.675c0-8.85 7.144-15.994 15.994-15.994h168.896C334.102 292.681 341.247 299.826 341.247 308.675zM341.252 218.054v-14.635c0-8.833-7.161-15.994-15.994-15.994H156.341c-8.833 0-15.994 7.161-15.994 15.994v14.635c0 17.666 14.321 31.988 31.988 31.988h136.929C326.93 250.042 341.252 235.721 341.252 218.054zM170.471 480.505v9.964c0 8.339-6.76 15.098-15.098 15.098h0c-8.339 0-15.098-6.76-15.098-15.098v-9.964H170.471zM341.179 480.505v9.964c0 8.339-6.76 15.098-15.098 15.098h0c-8.339 0-15.098-6.76-15.098-15.098v-9.964H341.179z"/><path fill="#116fff" d="M318.156 318.263H163.293c-2.947 0-5.331 2.385-5.331 5.331 0 2.947 2.385 5.331 5.331 5.331h15.609v11.506c0 2.947 2.385 5.331 5.331 5.331 2.947 0 5.331-2.385 5.331-5.331v-11.506h128.592c2.947 0 5.331-2.385 5.331-5.331C323.488 320.647 321.103 318.263 318.156 318.263zM325.258 182.096c-42.677 0-126.135 0-168.915 0-11.761 0-21.325 9.564-21.325 21.325v14.635c0 20.576 16.744 37.319 37.319 37.319h136.928c20.576 0 37.319-16.744 37.319-37.319v-14.635C346.583 191.66 337.019 182.096 325.258 182.096zM335.92 218.056c0 14.698-11.959 26.657-26.657 26.657H172.336c-14.698 0-26.657-11.959-26.657-26.657v-14.635c0-5.878 4.785-10.663 10.663-10.663h140.317v14.401c0 2.947 2.384 5.331 5.331 5.331s5.331-2.385 5.331-5.331v-14.401h17.936c5.878 0 10.663 4.785 10.663 10.663V218.056z"/><path fill="#116fff" d="M393.57,263.086h-5.321v-86.405c0-20.576-16.744-37.319-37.319-37.319h-35.612V38.566c0.533-0.206,21.731,1.566,21.731-18.733c0-10.329-8.403-18.733-18.733-18.733H163.137c-10.329,0-18.733,8.403-18.733,18.733c0,20.267,21.198,18.526,21.731,18.733v100.795h-35.617c-20.576,0-37.319,16.744-37.319,37.319c0,65.378,0,218.907,0,271.835c0,38.677,41.211,37.105,41.745,37.319c0.195,0.533-2.41,25.063,20.43,25.063c22.789,0,20.235-24.529,20.43-25.063h129.847c0.195,0.533-2.41,25.063,20.43,25.063c22.789,0,20.235-24.529,20.43-25.063c0.533-0.214,41.739,1.331,41.739-37.319c0-29.94,0-56.477,0-86.405h5.321c13.911,0,25.23-11.319,25.23-25.23v-48.56C418.801,274.415,407.482,263.091,393.57,263.086z M163.137,27.904c-4.451,0-8.07-3.618-8.07-8.07s3.618-8.07,8.07-8.07h155.181c4.451,0,8.07,3.618,8.07,8.07s-3.618,8.07-8.07,8.07H163.137z M261.521,108.837h-41.578c-11.428,0-20.727,9.299-20.727,20.727v9.798h-22.419V38.566h127.858v100.795h-22.408v-9.798C282.248,118.135,272.949,108.837,261.521,108.837z M271.585,129.563v9.798h-61.706v-9.798c0-5.55,4.514-10.064,10.064-10.064h41.578C267.071,119.499,271.585,124.013,271.585,129.563z M165.141,490.469c0,5.383-4.384,9.767-9.767,9.767c-5.383,0-9.767-4.384-9.767-9.767v-4.634h19.534V490.469z M335.847,490.469c0,5.383-4.384,9.767-9.767,9.767s-9.767-4.384-9.767-9.767v-4.634h19.534V490.469z M377.587,448.516c0,14.698-11.959,26.657-26.657,26.657c-46.588,0-166.602,0-220.412,0c-14.698,0-26.657-11.959-26.657-26.657v-26.948c282.155,0.093,221.251,0.111,273.725,0V448.516z M145.695,410.905V308.678c0-5.878,4.785-10.663,10.663-10.663h168.895c5.878,0,10.663,4.785,10.663,10.663v102.227H145.695z M377.587,410.905h-31.009V308.678c0-11.761-9.564-21.325-21.325-21.325H156.358c-11.761,0-21.325,9.564-21.325,21.325v102.227h-31.171V176.681c0-14.698,11.959-26.657,26.657-26.657c81.752,0,147.246,0,220.412,0c14.698,0,26.657,11.959,26.657,26.657C377.587,366.224,377.587,306.011,377.587,410.905z M408.138,336.881c0,8.033-6.534,14.567-14.567,14.567h-5.321v-77.7h5.321c8.033,0.005,14.567,6.539,14.567,14.573V336.881z"/></svg>